<svg width="261" height="207" viewBox="0 0 261 207" fill="none" xmlns="http://www.w3.org/2000/svg">
<rect x="103" y="134" width="61" height="157" rx="5" transform="rotate(-90 103 134)" fill="url(#paint0_linear_1831_10276)"/>
<g filter="url(#filter0_f_1831_10276)">
<circle cx="103.5" cy="103.5" r="30.5" transform="rotate(-90 103.5 103.5)" fill="url(#paint1_linear_1831_10276)"/>
<circle cx="103.5" cy="103.5" r="30" transform="rotate(-90 103.5 103.5)" stroke="white"/>
</g>
<g filter="url(#filter1_d_1831_10276)">
<circle cx="103.5" cy="103.5" r="30.5" transform="rotate(-90 103.5 103.5)" fill="url(#paint2_linear_1831_10276)"/>
<circle cx="103.5" cy="103.5" r="30" transform="rotate(-90 103.5 103.5)" stroke="white"/>
</g>
<path d="M103 133.576L254.987 133.986C257.753 133.994 260 131.753 260 128.986L260 78.0135C260 75.2468 257.753 73.0061 254.987 73.0135L103 73.4236" stroke="url(#paint3_linear_1831_10276)"/>
<circle cx="103.5" cy="103.5" r="30" transform="rotate(-90 103.5 103.5)" stroke="white"/>
<defs>
<filter id="filter0_f_1831_10276" x="0" y="0" width="207" height="207" filterUnits="userSpaceOnUse" color-interpolation-filters="sRGB">
<feFlood flood-opacity="0" result="BackgroundImageFix"/>
<feBlend mode="normal" in="SourceGraphic" in2="BackgroundImageFix" result="shape"/>
<feGaussianBlur stdDeviation="36.5" result="effect1_foregroundBlur_1831_10276"/>
</filter>
<filter id="filter1_d_1831_10276" x="49" y="55" width="109" height="109" filterUnits="userSpaceOnUse" color-interpolation-filters="sRGB">
<feFlood flood-opacity="0" result="BackgroundImageFix"/>
<feColorMatrix in="SourceAlpha" type="matrix" values="0 0 0 0 0 0 0 0 0 0 0 0 0 0 0 0 0 0 127 0" result="hardAlpha"/>
<feOffset dy="6"/>
<feGaussianBlur stdDeviation="12"/>
<feComposite in2="hardAlpha" operator="out"/>
<feColorMatrix type="matrix" values="0 0 0 0 0 0 0 0 0 0 0 0 0 0 0 0 0 0 0.57 0"/>
<feBlend mode="normal" in2="BackgroundImageFix" result="effect1_dropShadow_1831_10276"/>
<feBlend mode="normal" in="SourceGraphic" in2="effect1_dropShadow_1831_10276" result="shape"/>
</filter>
<linearGradient id="paint0_linear_1831_10276" x1="134" y1="291" x2="165.972" y2="172.636" gradientUnits="userSpaceOnUse">
<stop stop-color="#12ABDB" stop-opacity="0"/>
<stop offset="1" stop-color="#21C663" stop-opacity="0.19"/>
</linearGradient>
<linearGradient id="paint1_linear_1831_10276" x1="73" y1="103.5" x2="134.031" y2="103.192" gradientUnits="userSpaceOnUse">
<stop stop-color="#12ABDB"/>
<stop offset="1" stop-color="#21C663"/>
</linearGradient>
<linearGradient id="paint2_linear_1831_10276" x1="73" y1="103.5" x2="134.031" y2="103.192" gradientUnits="userSpaceOnUse">
<stop stop-color="#12ABDB"/>
<stop offset="1" stop-color="#21C663"/>
</linearGradient>
<linearGradient id="paint3_linear_1831_10276" x1="260" y1="103" x2="133.5" y2="105" gradientUnits="userSpaceOnUse">
<stop stop-color="white"/>
<stop offset="1" stop-color="white" stop-opacity="0"/>
</linearGradient>
</defs>
</svg>
